# xmcd CD database file
#
# Track frame offsets:
#	150
#	16751
#	37280
#	56218
#	80312
#	95835
#	101786
#	121928
#	137826
#	150463
#
# Disc length: 2205 seconds
#
# Revision: 0
# Processed by: cddbd v1.5.2PL0 Copyright (c) Steve Scherf et al.
# Submitted via: CDex 1.70beta2
#
DISCID=83089b0a
DTITLE=Belphegor - Conjuring The Dead
DYEAR=2014
DGENRE=Death/Black Metal
TTITLE0=Gasmask Terror
TTITLE1=Conjuring The Dead
TTITLE2=In Death
TTITLE3=Rex Tremendae Majestatis
TTITLE4=Black Winged Torment
TTITLE5=The Eyes
TTITLE6=Legions Of Destruction
TTITLE7=Flesh, Bones And Blood
TTITLE8=Lucifer, Take Her!
TTITLE9=Pactum In Aeternum
EXTD=YEAR: 2014
EXTT0=
EXTT1=
EXTT2=
EXTT3=
EXTT4=
EXTT5=
EXTT6=
EXTT7=
EXTT8=
EXTT9=
PLAYORDER=
